{
  "accessors": [
    {
      "bufferView": 2,
      "componentType": 5126,
      "count": 43395,
      "max": [
        1.1447619199752808,
        2.7137818336486816,
        2.8575708866119385
      ],
      "min": [
        -0.6593877673149109,
        -8.868643760681152,
        -2.8575706481933594
      ],
      "type": "VEC3"
    },
    {
      "bufferView": 2,
      "byteOffset": 520740,
      "componentType": 5126,
      "count": 43395,
      "max": [
        0.9999997615814209,
        0.9999934434890747,
        1.0
      ],
      "min": [
        -0.9999959468841553,
        -0.9999971389770508,
        -1.0
      ],
      "type": "VEC3"
    },
    {
      "bufferView": 1,
      "componentType": 5126,
      "count": 43395,
      "max": [
        1.0,
        1.000000238418579
      ],
      "min": [
        0.0,
        0.0
      ],
      "type": "VEC2"
    },
    {
      "bufferView": 0,
      "componentType": 5125,
      "count": 219324,
      "type": "SCALAR"
    }
  ],
  "asset": {
    "extras": {
      "author": "Animation-class-k (https://sketchfab.com/Animation-class-k)",
      "license": "CC-BY-4.0 (http://creativecommons.org/licenses/by/4.0/)",
      "source": "https://sketchfab.com/3d-models/sculpting-a-human-body-a24baf3514834527972bffdad882258e",
      "title": "sculpting a human body"
    },
    "generator": "Sketchfab-12.68.0",
    "version": "2.0"
  },
  "bufferViews": [
    {
      "buffer": 0,
      "byteLength": 877296,
      "name": "floatBufferViews",
      "target": 34963
    },
    {
      "buffer": 0,
      "byteLength": 347160,
      "byteOffset": 877296,
      "byteStride": 8,
      "name": "floatBufferViews",
      "target": 34962
    },
    {
      "buffer": 0,
      "byteLength": 1041480,
      "byteOffset": 1224456,
      "byteStride": 12,
      "name": "floatBufferViews",
      "target": 34962
    }
  ],
  "buffers": [
    {
      "byteLength": 2265936,
      "uri": "scene.bin"
    }
  ],
  "materials": [
    {
      "doubleSided": true,
      "name": "Scene_-_Root",
      "pbrMetallicRoughness": {
        "metallicFactor": 0.0,
        "roughnessFactor": 0.6
      }
    }
  ],
  "meshes": [
    {
      "name": "Object_0",
      "primitives": [
        {
          "attributes": {
            "NORMAL": 1,
            "POSITION": 0,
            "TEXCOORD_0": 2
          },
          "indices": 3,
          "material": 0,
          "mode": 4
        }
      ]
    }
  ],
  "nodes": [
    {
      "children": [
        1
      ],
      "matrix": [
        1.0,
        0.0,
        0.0,
        0.0,
        0.0,
        3.828568672208042e-16,
        -1.0,
        0.0,
        0.0,
        1.0,
        3.828568672208042e-16,
        0.0,
        -1.42259128921296e-08,
        0.00022352229279931648,
        -0.0005720693152397871,
        1.0
      ],
      "name": "Sketchfab_model"
    },
    {
      "children": [
        2
      ],
      "name": "root"
    },
    {
      "children": [
        3
      ],
      "matrix": [
        1.0,
        0.0,
        0.0,
        0.0,
        0.0,
        2.220446049250313e-16,
        1.0,
        0.0,
        0.0,
        -1.0,
        2.220446049250313e-16,
        0.0,
        0.0,
        0.0,
        0.0,
        1.0
      ],
      "name": "GLTF_SceneRootNode"
    },
    {
      "children": [
        4
      ],
      "matrix": [
        -7.568630285237742e-08,
        0.0029111573484582446,
        -0.8978873385870807,
        0.0,
        2.4080173134845416e-10,
        0.7992443753244819,
        0.002591334164596989,
        0.0,
        0.7992480993270846,
        -2.2368291982275864e-11,
        -6.737170268957416e-08,
        0.0,
        0.11674904823303223,
        7.14259147644043,
        -1.0571131706237793,
        1.0
      ],
      "name": "pody_0"
    },
    {
      "mesh": 0,
      "name": "Object_4"
    }
  ],
  "scene": 0,
  "scenes": [
    {
      "name": "Sketchfab_Scene",
      "nodes": [
        0
      ]
    }
  ]
}
