{
    "asset" : {
        "generator" : "Khronos glTF Blender I/O v1.8.19",
        "version" : "2.0"
    },
    "scene" : 0,
    "scenes" : [
        {
            "name" : "Scene",
            "nodes" : [
                0
            ]
        }
    ],
    "nodes" : [
        {
            "mesh" : 0,
            "name" : "\u8f7f\u8f6630"
        }
    ],
    "materials" : [
        {
            "doubleSided" : true,
            "name" : "Mat3d66-8694087-43-20202",
            "pbrMetallicRoughness" : {
                "baseColorTexture" : {
                    "index" : 0
                },
                "metallicFactor" : 0,
                "roughnessFactor" : 0.5
            }
        },
        {
            "doubleSided" : true,
            "name" : "Mat3d66-8694087-42-84103",
            "pbrMetallicRoughness" : {
                "baseColorTexture" : {
                    "index" : 1
                },
                "metallicFactor" : 0,
                "roughnessFactor" : 0.6181102395057678
            }
        }
    ],
    "meshes" : [
        {
            "name" : "Obj3d66-8694087-41-672",
            "primitives" : [
                {
                    "attributes" : {
                        "POSITION" : 0,
                        "NORMAL" : 1,
                        "TEXCOORD_0" : 2
                    },
                    "indices" : 3,
                    "material" : 0
                },
                {
                    "attributes" : {
                        "POSITION" : 4,
                        "NORMAL" : 5,
                        "TEXCOORD_0" : 6
                    },
                    "indices" : 7,
                    "material" : 1
                }
            ]
        }
    ],
    "textures" : [
        {
            "sampler" : 0,
            "source" : 0
        },
        {
            "sampler" : 0,
            "source" : 1
        }
    ],
    "images" : [
        {
            "bufferView" : 4,
            "mimeType" : "image/jpeg",
            "name" : "3d66Model-8694087-files-24"
        },
        {
            "bufferView" : 9,
            "mimeType" : "image/jpeg",
            "name" : "3d66Model-8694087-files-34"
        }
    ],
    "accessors" : [
        {
            "bufferView" : 0,
            "componentType" : 5126,
            "count" : 3154,
            "max" : [
                1.1894559860229492,
                1.8575512170791626,
                2.5607857704162598
            ],
            "min" : [
                -1.1894559860229492,
                0.20317566394805908,
                -2.5607857704162598
            ],
            "type" : "VEC3"
        },
        {
            "bufferView" : 1,
            "componentType" : 5126,
            "count" : 3154,
            "type" : "VEC3"
        },
        {
            "bufferView" : 2,
            "componentType" : 5126,
            "count" : 3154,
            "type" : "VEC2"
        },
        {
            "bufferView" : 3,
            "componentType" : 5123,
            "count" : 8964,
            "type" : "SCALAR"
        },
        {
            "bufferView" : 5,
            "componentType" : 5126,
            "count" : 1016,
            "max" : [
                1.0842487812042236,
                0.8038187026977539,
                2.030081272125244
            ],
            "min" : [
                -1.038032054901123,
                0,
                -1.8020262718200684
            ],
            "type" : "VEC3"
        },
        {
            "bufferView" : 6,
            "componentType" : 5126,
            "count" : 1016,
            "type" : "VEC3"
        },
        {
            "bufferView" : 7,
            "componentType" : 5126,
            "count" : 1016,
            "type" : "VEC2"
        },
        {
            "bufferView" : 8,
            "componentType" : 5123,
            "count" : 4152,
            "type" : "SCALAR"
        }
    ],
    "bufferViews" : [
        {
            "buffer" : 0,
            "byteLength" : 37848,
            "byteOffset" : 0
        },
        {
            "buffer" : 0,
            "byteLength" : 37848,
            "byteOffset" : 37848
        },
        {
            "buffer" : 0,
            "byteLength" : 25232,
            "byteOffset" : 75696
        },
        {
            "buffer" : 0,
            "byteLength" : 17928,
            "byteOffset" : 100928
        },
        {
            "buffer" : 0,
            "byteLength" : 173867,
            "byteOffset" : 118856
        },
        {
            "buffer" : 0,
            "byteLength" : 12192,
            "byteOffset" : 292724
        },
        {
            "buffer" : 0,
            "byteLength" : 12192,
            "byteOffset" : 304916
        },
        {
            "buffer" : 0,
            "byteLength" : 8128,
            "byteOffset" : 317108
        },
        {
            "buffer" : 0,
            "byteLength" : 8304,
            "byteOffset" : 325236
        },
        {
            "buffer" : 0,
            "byteLength" : 57562,
            "byteOffset" : 333540
        }
    ],
    "samplers" : [
        {
            "magFilter" : 9729,
            "minFilter" : 9987
        }
    ],
    "buffers" : [
        {
            "byteLength" : 391104,
            "uri" : "data:application/octet-stream;base64,"
        }
    ]
}
